<svg width="82" height="40" viewBox="0 0 82 40" fill="none" xmlns="http://www.w3.org/2000/svg">
<path d="M23.6633 10.442H36.0433V11.4282H24.7984V18.85H35.3727V19.8362H24.7984V27.9847H36.1722V28.9709H23.6633V10.442ZM37.1522 10.442H38.4678L44.2967 18.5905L50.2544 10.442L58.358 0.0917969L45.0447 19.4469L51.9051 28.9709H50.538L44.2967 20.3034L38.0296 28.9709H36.6882L43.6002 19.4469L37.1527 10.442H37.1522ZM52.3953 11.4282V10.442H66.5029V11.4282H60.0038V28.9705H58.8687V11.4282H52.3958H52.3953ZM8.17578 10.442H9.59445L29.1549 39.7767L21.0713 28.9709L9.362 11.8434L9.31045 28.9709H8.17578V10.442ZM66.3891 27.6869C66.1567 27.6869 65.9829 27.5069 65.9829 27.2745C65.9829 27.0416 66.1567 26.8616 66.3887 26.8616C66.6233 26.8616 66.7944 27.0416 66.7944 27.2745C66.7944 27.5069 66.6233 27.6869 66.3887 27.6869H66.3891ZM67.5038 26.6011H68.1113C68.1198 26.9309 68.3602 27.1522 68.7131 27.1522C69.1078 27.1522 69.3313 26.9145 69.3313 26.4682V23.6434H69.9496V26.4709C69.9496 27.2745 69.486 27.7371 68.7184 27.7371C67.9984 27.7371 67.5042 27.2882 67.5042 26.6011H67.5038ZM70.758 26.5656H71.3709C71.4233 26.9447 71.7931 27.1856 72.326 27.1856C72.8224 27.1856 73.1869 26.9278 73.1869 26.5736C73.1869 26.2691 72.9553 26.086 72.4278 25.9616L71.9144 25.8371C71.1945 25.6682 70.8656 25.3189 70.8656 24.7318C70.8656 24.0198 71.4451 23.546 72.3144 23.546C73.1233 23.546 73.7144 24.0198 73.75 24.6927H73.1482C73.0904 24.3247 72.7704 24.0945 72.3064 24.0945C71.8176 24.0945 71.4922 24.33 71.4922 24.69C71.4922 24.9754 71.702 25.1389 72.2211 25.2607L72.6598 25.3687C73.4767 25.5598 73.8136 25.8922 73.8136 26.4931C73.8136 27.2576 73.2224 27.7371 72.2789 27.7371C71.3958 27.7371 70.802 27.2798 70.758 26.5651V26.5656Z" fill="black"/>
</svg>
