<svg width="40" height="40" viewBox="0 0 40 40" fill="none" xmlns="http://www.w3.org/2000/svg">
<path d="M32.424 7.1309C29.174 2.47931 22.7552 1.10056 18.1141 4.05753L9.96329 9.25243C8.86219 9.94516 7.91775 10.86 7.19032 11.9385C6.46289 13.017 5.9685 14.2354 5.73873 15.5158C5.34992 17.6726 5.69166 19.8975 6.70986 21.8382C6.01216 22.8966 5.53631 24.0854 5.31104 25.3329C5.07884 26.6391 5.10981 27.9786 5.40212 29.2727C5.69443 30.5668 6.24221 31.7895 7.01332 32.8691C10.264 37.5211 16.6828 38.8992 21.3231 35.9424L29.474 30.7475C30.5752 30.0549 31.5197 29.1401 32.2471 28.0616C32.9745 26.9831 33.4689 25.7646 33.6985 24.4841C34.0873 22.3273 33.7458 20.1025 32.7281 18.1616C33.4256 17.1032 33.9013 15.9144 34.1264 14.6671C34.3587 13.3608 34.3278 12.0214 34.0355 10.7272C33.7432 9.43312 33.1953 8.21043 32.4241 7.1309" fill="#FF3E00"/>
<path d="M17.318 33.3066C16.0353 33.6402 14.6811 33.572 13.4384 33.1114C12.1957 32.6507 11.1243 31.8198 10.3689 30.7308C9.90507 30.0816 9.57559 29.3463 9.39975 28.5681C9.22392 27.7899 9.20529 26.9843 9.34495 26.1988C9.39224 25.9409 9.45733 25.6866 9.53973 25.4376L9.69323 24.9696L10.1108 25.2763C11.0752 25.9849 12.1535 26.5237 13.2993 26.8694L13.6022 26.9613L13.5743 27.2636C13.5373 27.6937 13.6537 28.1231 13.903 28.4755C14.1304 28.8035 14.4529 29.0539 14.8271 29.1928C15.2012 29.3316 15.609 29.3523 15.9953 29.2521C16.1724 29.2047 16.3413 29.1305 16.496 29.032L24.647 23.8377C24.8465 23.7121 25.0176 23.5464 25.1494 23.351C25.2813 23.1557 25.371 22.935 25.4128 22.703C25.4546 22.4663 25.4489 22.2235 25.3959 21.989C25.3429 21.7545 25.2438 21.5328 25.1042 21.337C24.8768 21.0089 24.5541 20.7585 24.1798 20.6196C23.8055 20.4806 23.3976 20.4599 23.0112 20.56C22.8343 20.6074 22.6656 20.6815 22.5112 20.7799L19.4008 22.7627C18.8893 23.0879 18.3312 23.333 17.7456 23.4895C16.463 23.823 15.1088 23.7549 13.8661 23.2942C12.6234 22.8336 11.552 22.0027 10.7966 20.9137C10.3328 20.2645 10.0033 19.5292 9.82747 18.751C9.65164 17.9728 9.63302 17.1672 9.7727 16.3817C9.91084 15.6117 10.2082 14.8791 10.6456 14.2306C11.0831 13.5821 11.6511 13.0321 12.3133 12.6157L20.4637 7.42091C20.9753 7.09518 21.5339 6.84976 22.1199 6.6932C23.4026 6.3597 24.7567 6.42787 25.9994 6.88851C27.2421 7.34914 28.3135 8.18005 29.0689 9.26901C29.5327 9.9182 29.8622 10.6535 30.038 11.4317C30.2139 12.21 30.2325 13.0155 30.0928 13.801C30.0453 14.0589 29.9803 14.3132 29.898 14.5622L29.7445 15.0303L29.3272 14.724C28.3628 14.015 27.2844 13.476 26.1385 13.1303L25.8356 13.0383L25.8635 12.736C25.9002 12.3059 25.7837 11.8767 25.5347 11.5241C25.3074 11.1961 24.9849 10.9457 24.6107 10.8068C24.2365 10.668 23.8288 10.6473 23.4425 10.7475C23.2653 10.7949 23.0965 10.8691 22.9418 10.9676L14.7908 16.1621C14.5914 16.2876 14.4203 16.4533 14.2885 16.6486C14.1568 16.8439 14.0672 17.0646 14.0255 17.2965C13.9835 17.5332 13.989 17.776 14.0419 18.0106C14.0948 18.2452 14.1939 18.4668 14.3335 18.6626C14.561 18.9907 14.8837 19.2411 15.258 19.3801C15.6322 19.519 16.0401 19.5398 16.4266 19.4396C16.6037 19.3922 16.7725 19.318 16.9272 19.2196L20.0372 17.2376C20.5484 16.9119 21.1066 16.6666 21.6922 16.5101C22.9748 16.1766 24.329 16.2448 25.5717 16.7054C26.8144 17.1661 27.8858 17.997 28.6412 19.086C29.105 19.7352 29.4345 20.4704 29.6103 21.2487C29.7862 22.0269 29.8048 22.8324 29.6651 23.618C29.5269 24.388 29.2295 25.1207 28.7921 25.7692C28.3546 26.4178 27.7866 26.968 27.1245 27.3846L18.9741 32.5789C18.4624 32.9046 17.9039 33.1501 17.3179 33.3066" fill="white"/>
</svg>
