<svg width="40" height="40" viewBox="0 0 40 40" fill="none" xmlns="http://www.w3.org/2000/svg">
<path d="M40 0H0V40H40V0Z" fill="#F7DF1E"/>
<path d="M26.87 31.2503C27.6757 32.5658 28.724 33.5328 30.5779 33.5328C32.1354 33.5328 33.1303 32.7544 33.1303 31.6788C33.1303 30.3899 32.1081 29.9334 30.3938 29.1836L29.4541 28.7804C26.7418 27.6249 24.9398 26.1773 24.9398 23.1169C24.9398 20.2979 27.0878 18.1519 30.4446 18.1519C32.8344 18.1519 34.5525 18.9836 35.7906 21.1614L32.8637 23.0407C32.2192 21.8852 31.524 21.4299 30.4446 21.4299C29.3437 21.4299 28.6459 22.1284 28.6459 23.0407C28.6459 24.1684 29.3443 24.6249 30.957 25.3233L31.8967 25.7258C35.0903 27.0953 36.8935 28.4915 36.8935 31.6306C36.8935 35.0147 34.2351 36.8687 30.6649 36.8687C27.1741 36.8687 24.9189 35.2052 23.8154 33.0249L26.87 31.2503ZM13.5919 31.576C14.1824 32.6236 14.7195 33.5093 16.011 33.5093C17.2459 33.5093 18.0249 33.0261 18.0249 31.1474V18.3665H21.7837V31.1982C21.7837 35.0903 19.5018 36.8617 16.171 36.8617C13.1614 36.8617 11.4186 35.3042 10.5322 33.4284L13.5919 31.576Z" fill="black"/>
</svg>
