<svg width="319" height="96" viewBox="0 0 319 96" fill="none" xmlns="http://www.w3.org/2000/svg">
<g clip-path="url(#clip0_53_71135)">
<rect width="32" height="32" rx="8" fill="#627EEA"/>
<path d="M16 32C24.8366 32 32 24.8366 32 16C32 7.16344 24.8366 0 16 0C7.16344 0 0 7.16344 0 16C0 24.8366 7.16344 32 16 32Z" fill="#627EEA"/>
<path d="M15.998 6.00171V13.3935L22.6622 16.1852L15.998 6.00171Z" fill="white" fill-opacity="0.602"/>
<path d="M15.9986 6.00171L9.3335 16.1852L15.9986 13.3935V6.00171Z" fill="white"/>
<path d="M15.998 20.9754V25.998L22.6667 17.3486L15.998 20.9754Z" fill="white" fill-opacity="0.602"/>
<path d="M15.9986 25.998V20.9745L9.3335 17.3486L15.9986 25.998Z" fill="white"/>
<path d="M15.998 19.8129L22.6622 16.1853L15.998 13.3953V19.8129Z" fill="white" fill-opacity="0.2"/>
<path d="M9.3335 16.1853L15.9986 19.8129V13.3953L9.3335 16.1853Z" fill="white" fill-opacity="0.602"/>
</g>
<rect x="0.5" y="0.5" width="31" height="31" rx="7.5" stroke="#627EEA"/>
<g filter="url(#filter0_d_53_71135)">
<rect x="23.5" y="23.5" width="13" height="13" rx="6.5" fill="#18CE66" stroke="#18CE66"/>
<g clip-path="url(#clip1_53_71135)">
<path d="M28.8749 31.5751L27.2999 30.0001L26.7749 30.5251L28.8749 32.6251L33.3749 28.1251L32.8499 27.6001L28.8749 31.5751Z" fill="white"/>
</g>
</g>
<g clip-path="url(#clip2_53_71135)">
<rect x="56" width="32" height="32" rx="8" fill="#8247E5"/>
<path d="M72 32C80.8366 32 88 24.8366 88 16C88 7.16344 80.8366 0 72 0C63.1634 0 56 7.16344 56 16C56 24.8366 63.1634 32 72 32Z" fill="#8247E5"/>
<g clip-path="url(#clip3_53_71135)">
<path d="M77.1042 13.1761C76.7396 12.9731 76.2708 12.9731 75.8542 13.1761L72.9375 14.8507L70.9583 15.9164L68.0937 17.591C67.7292 17.794 67.2604 17.794 66.8437 17.591L64.6042 16.2716C64.2396 16.0686 63.9792 15.6627 63.9792 15.2059V12.6686C63.9792 12.2627 64.1875 11.8567 64.6042 11.603L66.8437 10.3343C67.2083 10.1313 67.6771 10.1313 68.0937 10.3343L70.3333 11.6537C70.6979 11.8567 70.9583 12.2627 70.9583 12.7194V14.394L72.9375 13.2776V11.5522C72.9375 11.1462 72.7292 10.7403 72.3125 10.4865L68.1458 8.10146C67.7812 7.89847 67.3125 7.89847 66.8958 8.10146L62.625 10.5373C62.2083 10.7403 62 11.1462 62 11.5522V16.3224C62 16.7283 62.2083 17.1343 62.625 17.388L66.8437 19.7731C67.2083 19.9761 67.6771 19.9761 68.0937 19.7731L70.9583 18.1492L72.9375 17.0328L75.8021 15.4089C76.1667 15.2059 76.6354 15.2059 77.0521 15.4089L79.2917 16.6776C79.6562 16.8806 79.9167 17.2865 79.9167 17.7433V20.2806C79.9167 20.6865 79.7083 21.0925 79.2917 21.3462L77.1042 22.6149C76.7396 22.8179 76.2708 22.8179 75.8542 22.6149L73.6146 21.3462C73.25 21.1432 72.9896 20.7373 72.9896 20.2806V18.6567L71.0104 19.7731V21.4477C71.0104 21.8537 71.2187 22.2597 71.6354 22.5134L75.8542 24.8985C76.2187 25.1015 76.6875 25.1015 77.1042 24.8985L81.3229 22.5134C81.6875 22.3104 81.9479 21.9044 81.9479 21.4477V16.6268C81.9479 16.2209 81.7396 15.8149 81.3229 15.5612L77.1042 13.1761Z" fill="white"/>
</g>
</g>
<g filter="url(#filter1_d_53_71135)">
<rect x="79.5" y="23.5" width="13" height="13" rx="6.5" fill="#18CE66" stroke="#18CE66"/>
<g clip-path="url(#clip4_53_71135)">
<path d="M84.8749 31.5751L83.2999 30.0001L82.7749 30.5251L84.8749 32.6251L89.3749 28.1251L88.8499 27.6001L84.8749 31.5751Z" fill="white"/>
</g>
</g>
<g clip-path="url(#clip5_53_71135)">
<rect x="112" width="32" height="32" rx="8" fill="#0052FF"/>
<mask id="mask0_53_71135" style="mask-type:luminance" maskUnits="userSpaceOnUse" x="112" y="0" width="32" height="32">
<path d="M144 0H112V32H144V0Z" fill="white"/>
</mask>
<g mask="url(#mask0_53_71135)">
<path d="M128 32C131.164 32 134.258 31.0616 136.889 29.3036C139.52 27.5454 141.571 25.0466 142.782 22.123C143.993 19.1993 144.31 15.9823 143.693 12.8786C143.075 9.77486 141.551 6.92394 139.314 4.6863C137.076 2.44866 134.225 0.924806 131.121 0.307442C128.018 -0.30992 124.801 0.0069325 121.877 1.21793C118.953 2.42894 116.455 4.4797 114.696 7.11088C112.938 9.74206 112 12.8355 112 16C112 20.2434 113.686 24.3132 116.686 27.3138C119.687 30.3142 123.757 32 128 32Z" fill="#0052FF"/>
<path fill-rule="evenodd" clip-rule="evenodd" d="M127.962 27.2676C134.185 27.2676 139.23 22.223 139.23 16C139.23 9.7771 134.185 4.73242 127.962 4.73242C122.059 4.73242 117.216 9.2726 116.734 15.0518H133.455V16.928H116.732C117.204 22.7168 122.052 27.2676 127.962 27.2676Z" fill="white"/>
</g>
</g>
<g filter="url(#filter2_d_53_71135)">
<rect x="135.5" y="23.5" width="13" height="13" rx="6.5" fill="#18CE66" stroke="#18CE66"/>
<g clip-path="url(#clip6_53_71135)">
<path d="M140.875 31.5751L139.3 30.0001L138.775 30.5251L140.875 32.6251L145.375 28.1251L144.85 27.6001L140.875 31.5751Z" fill="white"/>
</g>
</g>
<rect x="168" width="32" height="32" rx="8" fill="#1969FF"/>
<path d="M183.102 4.2295C183.411 4.07837 183.748 4 184.089 4C184.43 4 184.767 4.07837 185.076 4.2295L190.797 7.35966C190.941 7.42674 191.067 7.52968 191.164 7.65941C191.261 7.78914 191.326 7.94169 191.353 8.10365H191.359V23.8234C191.345 24 191.286 24.1693 191.187 24.3135C191.088 24.4576 190.953 24.571 190.797 24.6418L185.076 27.7696C184.767 27.9207 184.43 27.9991 184.089 27.9991C183.748 27.9991 183.411 27.9207 183.102 27.7696L177.381 24.6394C177.227 24.5678 177.094 24.4537 176.997 24.3095C176.9 24.1654 176.843 23.9965 176.831 23.821C176.831 23.794 176.831 23.7712 176.831 23.752V8.10065C176.855 7.93886 176.918 7.78603 177.014 7.65644C177.11 7.52685 177.237 7.42474 177.381 7.35966L183.102 4.2295ZM190.458 16.8725L185.076 19.8125C184.767 19.9639 184.43 20.0424 184.089 20.0424C183.748 20.0424 183.41 19.9639 183.102 19.8125L177.731 16.8791V23.7922L183.102 26.713C183.368 26.8807 183.661 26.9979 183.967 27.0592L184.09 27.067C184.426 27.0326 184.75 26.9207 185.038 26.7394L190.462 23.7658V16.8725H190.458ZM175.901 23.4815C175.874 23.9177 175.943 24.3544 176.102 24.7588C176.239 25.0174 176.44 25.2327 176.685 25.3816L176.702 25.3936C176.77 25.4404 176.844 25.4896 176.933 25.5472L177.039 25.6138L177.364 25.8172L176.898 26.6152L176.535 26.3872L176.473 26.3482C176.368 26.281 176.281 26.2234 176.199 26.1682C175.331 25.5604 175.006 24.8992 175 23.5235V23.4815H175.9H175.901ZM183.637 12.6588C183.598 12.6731 183.559 12.6902 183.522 12.7098L177.802 15.8376L177.785 15.8478H177.78L177.789 15.8538L177.802 15.861L183.523 18.9887C183.56 19.0087 183.599 19.0257 183.638 19.0397L183.637 12.6588ZM184.54 12.6588V19.0421C184.58 19.0281 184.618 19.0111 184.655 18.9911L190.376 15.8634L190.393 15.8532H190.399L190.389 15.8484L190.376 15.8406L184.655 12.7128C184.618 12.6928 184.58 12.6758 184.54 12.6618V12.6588ZM190.458 9.21964L185.323 12.0252L190.458 14.8308V9.21664V9.21964ZM177.731 9.22624V14.8242L182.851 12.0252L177.731 9.22624ZM184.654 5.05629C184.475 4.97613 184.283 4.93478 184.088 4.93478C183.893 4.93478 183.7 4.97613 183.521 5.05629L177.802 8.18165L177.784 8.19125L177.779 8.19425L177.788 8.19965L177.802 8.20625L183.522 11.334C183.701 11.4147 183.894 11.4564 184.089 11.4564C184.284 11.4564 184.477 11.4147 184.655 11.334L190.376 8.20625L190.393 8.19965L190.399 8.19665L190.389 8.19125L190.376 8.18405L184.654 5.05629ZM191.303 5.40009L191.666 5.62748L191.731 5.66288C191.836 5.73008 191.923 5.78828 192.004 5.84288C192.874 6.44887 193.197 7.11066 193.204 8.48645V8.52845H192.301C192.328 8.09205 192.259 7.65506 192.099 7.25046C191.963 6.99191 191.761 6.77685 191.516 6.62827L191.499 6.61627C191.432 6.56887 191.358 6.52027 191.268 6.46267L191.162 6.39967L190.838 6.19688L191.304 5.39889L191.303 5.40009Z" fill="white"/>
<g filter="url(#filter3_d_53_71135)">
<rect x="191.5" y="23.5" width="13" height="13" rx="6.5" fill="#18CE66" stroke="#18CE66"/>
<g clip-path="url(#clip7_53_71135)">
<path d="M196.875 31.5751L195.3 30.0001L194.775 30.5251L196.875 32.6251L201.375 28.1251L200.85 27.6001L196.875 31.5751Z" fill="white"/>
</g>
</g>
<rect x="224" width="32" height="32" rx="8" fill="#FF0420"/>
<path d="M240 32C248.837 32 256 24.8366 256 16C256 7.16344 248.837 0 240 0C231.163 0 224 7.16344 224 16C224 24.8366 231.163 32 240 32Z" fill="#FF0420"/>
<path d="M235.337 20.2525C234.384 20.2525 233.603 20.0283 232.995 19.58C232.394 19.1237 232.094 18.4753 232.094 17.6346C232.094 17.4585 232.114 17.2423 232.154 16.9861C232.258 16.4097 232.406 15.7172 232.599 14.9086C233.143 12.707 234.548 11.6062 236.814 11.6062C237.43 11.6062 237.983 11.7103 238.471 11.9184C238.959 12.1185 239.344 12.4228 239.624 12.8311C239.904 13.2314 240.044 13.7117 240.044 14.2721C240.044 14.4402 240.024 14.6524 239.984 14.9086C239.864 15.6211 239.72 16.3137 239.552 16.9861C239.272 18.0829 238.787 18.9035 238.099 19.4479C237.41 19.9843 236.489 20.2525 235.337 20.2525ZM235.505 18.5233C235.953 18.5233 236.333 18.3912 236.646 18.127C236.966 17.8628 237.194 17.4585 237.33 16.9141C237.514 16.1615 237.654 15.505 237.75 14.9446C237.782 14.7765 237.798 14.6044 237.798 14.4282C237.798 13.6997 237.418 13.3354 236.658 13.3354C236.209 13.3354 235.825 13.4675 235.505 13.7317C235.193 13.996 234.968 14.4002 234.832 14.9446C234.688 15.481 234.544 16.1375 234.4 16.9141C234.368 17.0742 234.352 17.2423 234.352 17.4184C234.352 18.155 234.736 18.5233 235.505 18.5233Z" fill="white"/>
<path d="M240.595 20.1325C240.507 20.1325 240.439 20.1045 240.391 20.0484C240.351 19.9844 240.339 19.9124 240.355 19.8323L242.012 12.0265C242.028 11.9385 242.072 11.8664 242.144 11.8103C242.216 11.7543 242.292 11.7263 242.372 11.7263H245.567C246.455 11.7263 247.168 11.9104 247.704 12.2787C248.249 12.647 248.521 13.1794 248.521 13.8759C248.521 14.076 248.497 14.2842 248.449 14.5003C248.249 15.421 247.845 16.1016 247.236 16.5419C246.636 16.9822 245.811 17.2024 244.762 17.2024H243.141L242.589 19.8323C242.573 19.9204 242.529 19.9924 242.457 20.0484C242.385 20.1045 242.308 20.1325 242.228 20.1325H240.595ZM244.846 15.5451C245.183 15.5451 245.475 15.453 245.723 15.2689C245.979 15.0848 246.147 14.8206 246.227 14.4763C246.251 14.3402 246.263 14.2201 246.263 14.1161C246.263 13.8839 246.195 13.7078 246.059 13.5877C245.923 13.4596 245.691 13.3956 245.363 13.3956H243.922L243.465 15.5451H244.846Z" fill="white"/>
<g filter="url(#filter4_d_53_71135)">
<rect x="247.5" y="23.5" width="13" height="13" rx="6.5" fill="#18CE66" stroke="#18CE66"/>
<g clip-path="url(#clip8_53_71135)">
<path d="M252.875 31.5751L251.3 30.0001L250.775 30.5251L252.875 32.6251L257.375 28.1251L256.85 27.6001L252.875 31.5751Z" fill="white"/>
</g>
</g>
<rect x="280" width="32" height="32" rx="8" fill="#E84142"/>
<path d="M305.868 5.48926H286.11V23.4467H305.868V5.48926Z" fill="white"/>
<path fill-rule="evenodd" clip-rule="evenodd" d="M311.989 16C311.989 24.8249 304.831 31.9787 296 31.9787C287.169 31.9787 280.011 24.8249 280.011 16C280.011 7.17516 287.169 0.0212402 296 0.0212402C304.831 0.0212402 311.989 7.17516 311.989 16ZM291.469 22.3587H288.366C287.714 22.3587 287.392 22.3587 287.196 22.2332C286.983 22.0957 286.854 21.868 286.838 21.6168C286.826 21.3853 286.987 21.1026 287.309 20.5373L294.971 7.04113C295.297 6.46803 295.462 6.18147 295.671 6.0755C295.894 5.96167 296.162 5.96167 296.385 6.0755C296.594 6.18147 296.759 6.46803 297.085 7.04113L298.66 9.78888L298.668 9.8029C299.02 10.4177 299.198 10.7295 299.276 11.0568C299.363 11.414 299.363 11.7908 299.276 12.148C299.198 12.4777 299.021 12.7918 298.664 13.4159L294.639 20.5255L294.629 20.5437C294.274 21.1636 294.095 21.4778 293.846 21.7149C293.575 21.974 293.249 22.1623 292.891 22.2685C292.565 22.3587 292.2 22.3587 291.469 22.3587ZM299.305 22.3587H303.752C304.408 22.3587 304.738 22.3587 304.934 22.2293C305.146 22.0919 305.28 21.8602 305.292 21.6091C305.303 21.3851 305.146 21.1134 304.837 20.581C304.826 20.5628 304.816 20.5444 304.805 20.5256L302.577 16.718L302.552 16.6752C302.239 16.1463 302.081 15.8792 301.878 15.776C301.654 15.6621 301.391 15.6621 301.167 15.776C300.963 15.8819 300.798 16.1606 300.472 16.722L298.253 20.5296L298.245 20.5427C297.92 21.1031 297.758 21.3832 297.77 21.6129C297.785 21.8642 297.915 22.0957 298.127 22.2332C298.32 22.3587 298.65 22.3587 299.305 22.3587Z" fill="#E84142"/>
<g filter="url(#filter5_d_53_71135)">
<rect x="303.5" y="23.5" width="13" height="13" rx="6.5" fill="#18CE66" stroke="#18CE66"/>
<g clip-path="url(#clip9_53_71135)">
<path d="M308.875 31.5751L307.3 30.0001L306.775 30.5251L308.875 32.6251L313.375 28.1251L312.85 27.6001L308.875 31.5751Z" fill="white"/>
</g>
</g>
<rect x="28" y="56" width="32" height="32" rx="8" fill="#1A1D26"/>
<g clip-path="url(#clip10_53_71135)">
<path d="M28 56H60V88H28V56Z" fill="#FBCC5C"/>
<path d="M53.4081 70.0801C53.4081 65.9201 50.0481 62.5601 45.8881 62.5601C42.8161 62.5601 40.1601 64.4161 39.0081 67.0721C36.3841 68.2561 34.5601 70.8801 34.5601 73.9201C34.5601 78.0801 37.9201 81.4401 42.0801 81.4401C45.1521 81.4401 47.8081 79.5841 48.9601 76.9281C51.6161 75.7761 53.4081 73.1521 53.4081 70.0801ZM47.1041 75.0401C46.7201 75.1361 46.3361 75.1681 45.9521 75.1681C43.1361 75.1681 40.8641 72.8641 40.8641 70.0801C40.8641 69.6961 40.8961 69.3441 40.9921 68.9921C41.3761 68.8961 41.7601 68.8641 42.1441 68.8641C44.9601 68.8641 47.2321 71.1361 47.2321 73.9521C47.2001 74.3361 47.1681 74.6881 47.1041 75.0401ZM37.0241 73.9521C37.0241 72.5761 37.5681 71.3601 38.4321 70.4321C38.6241 74.3361 41.7601 77.4401 45.6641 77.6001C44.7361 78.4961 43.4881 79.0721 42.1121 79.0721C39.2961 79.0401 37.0241 76.7681 37.0241 73.9521ZM49.6321 73.6001C49.4401 69.6961 46.3041 66.5921 42.4001 66.4321C43.3281 65.5361 44.5761 64.9601 45.9521 64.9601C48.7681 64.9601 51.0401 67.2321 51.0401 70.0481C51.0081 71.4561 50.4641 72.7041 49.6321 73.6001Z" fill="#F9B73E"/>
<path d="M53.1521 70.0801C53.1521 66.1121 49.9201 62.8801 45.9521 62.8801C42.9441 62.8801 40.3841 64.7041 39.2961 67.3281C36.7361 68.4161 34.9121 70.9761 34.9121 73.9521C34.9121 77.9201 38.1441 81.1521 42.1121 81.1521C45.1201 81.1521 47.6801 79.3281 48.7681 76.7041C51.2961 75.6161 53.1521 73.0561 53.1521 70.0801ZM42.1121 79.3601C39.1361 79.3601 36.7041 76.9281 36.7041 73.9521C36.7041 72.2561 37.5041 70.7201 38.7521 69.7281C38.7521 69.8561 38.7521 69.9841 38.7521 70.0801C38.7521 74.0481 41.9841 77.2801 45.9521 77.2801C46.1121 77.2801 46.2401 77.2801 46.4001 77.2801C45.3761 78.5601 43.8401 79.3601 42.1121 79.3601ZM47.3601 75.2961C46.9121 75.4241 46.4321 75.4881 45.9521 75.4881C42.9761 75.4881 40.5441 73.0561 40.5441 70.0801C40.5441 69.6001 40.6081 69.1521 40.7361 68.7361C41.1841 68.6081 41.6641 68.5441 42.1441 68.5441C45.1201 68.5441 47.5521 70.9761 47.5521 73.9521C47.5201 74.4321 47.4561 74.8801 47.3601 75.2961ZM49.3121 74.3041C49.3121 74.1761 49.3121 74.0481 49.3121 73.9521C49.3121 69.9841 46.0801 66.7521 42.1121 66.7521C41.9521 66.7521 41.8241 66.7521 41.6641 66.7521C42.6561 65.4721 44.1921 64.6721 45.9201 64.6721C48.8961 64.6721 51.3281 67.1041 51.3281 70.0801C51.3281 71.8081 50.5281 73.3121 49.3121 74.3041Z" fill="white"/>
</g>
<g filter="url(#filter6_d_53_71135)">
<rect x="51.5" y="79.5" width="13" height="13" rx="6.5" fill="#18CE66" stroke="#18CE66"/>
<g clip-path="url(#clip11_53_71135)">
<path d="M56.8749 87.5751L55.2999 86.0001L54.7749 86.5251L56.8749 88.6251L61.3749 84.1251L60.8499 83.6001L56.8749 87.5751Z" fill="white"/>
</g>
</g>
<rect x="84" y="56" width="32" height="32" rx="8" fill="#04795B"/>
<path d="M116 72C116 63.1634 108.837 56 100 56C91.1634 56 84 63.1634 84 72C84 80.8366 91.1634 88 100 88C108.837 88 116 80.8366 116 72Z" fill="#04795B"/>
<path d="M95.6529 73.4491C96.2831 73.4491 96.8648 73.2392 97.3334 72.8758L93.4877 69.0315C93.1241 69.4918 92.9141 70.0733 92.9141 70.7113C92.906 72.2216 94.134 73.4491 95.6529 73.4491Z" fill="#EFEFEF"/>
<path d="M107.093 70.7033C107.093 70.0734 106.883 69.4919 106.519 69.0234L102.673 72.8677C103.134 73.2311 103.716 73.4411 104.354 73.4411C105.865 73.4492 107.093 72.2216 107.093 70.7033Z" fill="#EFEFEF"/>
<path d="M109.032 66.5281L107.327 68.2321C107.893 68.9105 108.232 69.7666 108.232 70.7196C108.232 72.8598 106.495 74.5961 104.354 74.5961C103.409 74.5961 102.544 74.2569 101.866 73.6916L99.9993 75.5572L98.133 73.6916C97.4544 74.2569 96.598 74.5961 95.6446 74.5961C93.5037 74.5961 91.7667 72.8598 91.7667 70.7196C91.7667 69.7747 92.106 68.9105 92.6716 68.2321L91.799 67.3599L90.9669 66.5281C89.9974 68.1272 89.4399 69.9928 89.4399 71.9956C89.4399 77.8266 94.1662 82.5431 99.9912 82.5431C105.816 82.5431 110.543 77.8185 110.543 71.9956C110.559 69.9847 110.001 68.1191 109.032 66.5281Z" fill="#EFEFEF"/>
<path d="M107.634 64.7108C105.719 62.6998 103.005 61.4399 99.9991 61.4399C96.9937 61.4399 94.2872 62.6998 92.3643 64.7108C92.1058 64.9854 91.8554 65.2761 91.6211 65.5749L99.991 73.9418L108.361 65.5669C108.151 65.2761 107.9 64.9773 107.634 64.7108ZM99.9991 62.8129C102.471 62.8129 104.766 63.7659 106.487 65.5022L99.9991 71.9874L93.5116 65.5022C95.2405 63.7659 97.5269 62.8129 99.9991 62.8129Z" fill="#EFEFEF"/>
<g filter="url(#filter7_d_53_71135)">
<rect x="107.5" y="79.5" width="13" height="13" rx="6.5" fill="#18CE66" stroke="#18CE66"/>
<g clip-path="url(#clip12_53_71135)">
<path d="M112.875 87.5751L111.3 86.0001L110.775 86.5251L112.875 88.6251L117.375 84.1251L116.85 83.6001L112.875 87.5751Z" fill="white"/>
</g>
</g>
<rect x="140" y="56" width="32" height="32" rx="8" fill="white"/>
<g clip-path="url(#clip13_53_71135)">
<path d="M160.548 64C159.635 63.9993 158.758 64.3612 158.11 65.0063C157.463 65.6514 157.098 66.527 157.096 67.4409V71.256C156.74 71.28 156.377 71.2951 156 71.2951C155.623 71.2951 155.261 71.3102 154.904 71.3316V67.4409C154.889 66.535 154.519 65.671 153.874 65.0355C153.228 64.4 152.358 64.0438 151.452 64.0438C150.546 64.0438 149.676 64.4 149.03 65.0355C148.385 65.671 148.015 66.535 148 67.4409V76.5591C148.015 77.465 148.385 78.329 149.03 78.9645C149.676 79.6 150.546 79.9562 151.452 79.9562C152.358 79.9562 153.228 79.6 153.874 78.9645C154.519 78.329 154.889 77.465 154.904 76.5591V72.744C155.26 72.72 155.623 72.7049 156 72.7049C156.377 72.7049 156.739 72.6898 157.096 72.6684V76.5591C157.111 77.465 157.481 78.329 158.126 78.9645C158.772 79.6 159.642 79.9562 160.548 79.9562C161.454 79.9562 162.324 79.6 162.97 78.9645C163.615 78.329 163.985 77.465 164 76.5591V67.4409C163.998 66.5272 163.633 65.6517 162.986 65.0066C162.339 64.3616 161.462 63.9995 160.548 64V64ZM151.452 65.4098C151.991 65.4095 152.508 65.6233 152.89 66.004C153.272 66.3848 153.487 66.9016 153.489 67.4409V71.4809C152.479 71.6272 151.493 71.9061 150.556 72.3102C150.15 72.4884 149.767 72.7165 149.418 72.9893V67.4409C149.419 66.9022 149.634 66.386 150.015 66.0053C150.396 65.6246 150.913 65.4105 151.452 65.4098V65.4098ZM153.489 76.5591C153.489 77.0994 153.274 77.6176 152.892 77.9997C152.51 78.3818 151.992 78.5964 151.452 78.5964C150.911 78.5964 150.393 78.3818 150.011 77.9997C149.629 77.6176 149.414 77.0994 149.414 76.5591V75.6444C149.414 74.8364 150.054 74.0711 151.127 73.5947C151.883 73.2685 152.676 73.0366 153.489 72.904V76.5591V76.5591ZM160.548 78.5902C160.009 78.5905 159.492 78.3767 159.11 77.996C158.728 77.6152 158.513 77.0984 158.511 76.5591V72.5191C159.521 72.3728 160.507 72.0939 161.444 71.6898C161.85 71.5116 162.233 71.2835 162.582 71.0107V76.5591C162.581 77.0978 162.366 77.614 161.985 77.9947C161.604 78.3754 161.087 78.5895 160.548 78.5902V78.5902ZM160.873 70.4C160.117 70.7261 159.324 70.9581 158.511 71.0907V67.4409C158.511 66.9006 158.726 66.3824 159.108 66.0003C159.49 65.6182 160.008 65.4036 160.548 65.4036C161.089 65.4036 161.607 65.6182 161.989 66.0003C162.371 66.3824 162.586 66.9006 162.586 67.4409V68.3556C162.586 69.16 161.946 69.9253 160.873 70.4Z" fill="url(#paint0_linear_53_71135)"/>
</g>
<g filter="url(#filter8_d_53_71135)">
<rect x="163.5" y="79.5" width="13" height="13" rx="6.5" fill="#18CE66" stroke="#18CE66"/>
<g clip-path="url(#clip14_53_71135)">
<path d="M168.875 87.5751L167.3 86.0001L166.775 86.5251L168.875 88.6251L173.375 84.1251L172.85 83.6001L168.875 87.5751Z" fill="white"/>
</g>
</g>
<rect x="196" y="56" width="32" height="32" rx="8" fill="#33394B"/>
<path d="M214.783 71.3171L216.597 68.2392L221.486 75.8544L221.488 77.3158L221.472 67.2593C221.461 67.0135 221.33 66.7886 221.122 66.656L212.319 61.5927C212.113 61.4915 211.852 61.4926 211.647 61.5958C211.619 61.6098 211.593 61.6249 211.568 61.6413L211.537 61.6607L202.993 66.612L202.96 66.627C202.917 66.6466 202.874 66.6715 202.834 66.7005C202.672 66.8167 202.564 66.9885 202.529 67.1812C202.524 67.2104 202.52 67.2401 202.519 67.2701L202.532 75.4652L207.086 68.4065C207.659 67.4705 208.909 67.1691 210.068 67.1855L211.429 67.2214L203.41 80.0826L204.355 80.6269L212.471 67.2345L216.058 67.2214L207.963 80.9518L211.337 82.892L211.74 83.1238C211.91 83.1931 212.111 83.1965 212.283 83.1345L221.209 77.9617L219.503 78.9506L214.783 71.3171ZM215.475 81.2848L212.068 75.9374L214.147 72.4082L218.622 79.4608L215.475 81.2848Z" fill="#2D374B"/>
<path d="M212.068 75.9374L215.475 81.2847L218.622 79.4608L214.148 72.4082L212.068 75.9374Z" fill="#28A0F0"/>
<path d="M221.488 77.3158L221.486 75.8544L216.597 68.2393L214.783 71.3171L219.503 78.9506L221.209 77.9617C221.377 77.8258 221.478 77.6263 221.488 77.411L221.488 77.3158Z" fill="#28A0F0"/>
<path d="M201 78.6941L203.41 80.0828L211.43 67.2216L210.068 67.1857C208.909 67.1693 207.66 67.4708 207.086 68.4067L202.532 75.4654L201 77.8194V78.6941H201Z" fill="white"/>
<path d="M216.058 67.2214L212.471 67.2345L204.355 80.6269L207.192 82.2602L207.964 80.9518L216.058 67.2214Z" fill="white"/>
<path d="M223 67.2031C222.97 66.4529 222.564 65.7661 221.927 65.3663L213.01 60.2379C212.38 59.9209 211.594 59.9206 210.964 60.2377C210.889 60.2752 202.291 65.2617 202.291 65.2617C202.172 65.3187 202.058 65.3867 201.95 65.4638C201.382 65.8709 201.036 66.5035 201 67.1985V77.8194L202.532 75.4653L202.519 67.2703C202.521 67.2403 202.524 67.2109 202.53 67.1818C202.564 66.9889 202.672 66.8169 202.834 66.7007C202.874 66.6717 211.619 61.61 211.647 61.596C211.853 61.4928 212.114 61.4917 212.32 61.5929L221.122 66.6562C221.33 66.7888 221.461 67.0137 221.472 67.2595V77.4111C221.462 77.6265 221.377 77.8259 221.209 77.9619L219.503 78.9508L218.622 79.461L215.475 81.285L212.283 83.1347C212.111 83.1968 211.91 83.1933 211.74 83.124L207.963 80.952L207.192 82.2603L210.586 84.2142C210.698 84.278 210.798 84.3345 210.88 84.3807C211.007 84.452 211.093 84.4996 211.124 84.5144C211.365 84.6315 211.712 84.6997 212.025 84.6997C212.312 84.6997 212.591 84.647 212.856 84.5434L222.127 79.1745C222.659 78.7623 222.972 78.1406 223 77.467V67.2031V67.2031Z" fill="#96BEDC"/>
<g filter="url(#filter9_d_53_71135)">
<rect x="219.5" y="79.5" width="13" height="13" rx="6.5" fill="#18CE66" stroke="#18CE66"/>
<g clip-path="url(#clip15_53_71135)">
<path d="M224.875 87.5751L223.3 86.0001L222.775 86.5251L224.875 88.6251L229.375 84.1251L228.85 83.6001L224.875 87.5751Z" fill="white"/>
</g>
</g>
<g clip-path="url(#clip16_53_71135)">
<rect x="252" y="56" width="32" height="32" rx="8" fill="#F3BA2F"/>
<path d="M268 88C276.837 88 284 80.8366 284 72C284 63.1634 276.837 56 268 56C259.163 56 252 63.1634 252 72C252 80.8366 259.163 88 268 88Z" fill="#F3BA2F"/>
<path d="M264.116 70.404L268 66.52L271.886 70.406L274.146 68.146L268 62L261.856 68.144L264.116 70.404ZM258 72L260.26 69.74L262.52 72L260.26 74.26L258 72ZM264.116 73.596L268 77.48L271.886 73.594L274.146 75.853L268 82L261.856 75.856L261.853 75.853L264.116 73.596ZM273.48 72L275.74 69.74L278 72L275.74 74.26L273.48 72ZM270.292 71.998H270.294V72L268 74.294L265.709 72.004L265.705 72L265.709 71.997L266.11 71.595L266.305 71.4L268 69.706L270.293 71.999L270.292 71.998Z" fill="white"/>
</g>
<g filter="url(#filter10_d_53_71135)">
<rect x="275.5" y="79.5" width="13" height="13" rx="6.5" fill="#18CE66" stroke="#18CE66"/>
<g clip-path="url(#clip17_53_71135)">
<path d="M280.875 87.5751L279.3 86.0001L278.775 86.5251L280.875 88.6251L285.375 84.1251L284.85 83.6001L280.875 87.5751Z" fill="white"/>
</g>
</g>
<defs>
<filter id="filter0_d_53_71135" x="21" y="22" width="18" height="18" filterUnits="userSpaceOnUse" color-interpolation-filters="sRGB">
<feFlood flood-opacity="0" result="BackgroundImageFix"/>
<feColorMatrix in="SourceAlpha" type="matrix" values="0 0 0 0 0 0 0 0 0 0 0 0 0 0 0 0 0 0 127 0" result="hardAlpha"/>
<feOffset dy="1"/>
<feGaussianBlur stdDeviation="1"/>
<feColorMatrix type="matrix" values="0 0 0 0 0 0 0 0 0 0 0 0 0 0 0 0 0 0 0.1 0"/>
<feBlend mode="normal" in2="BackgroundImageFix" result="effect1_dropShadow_53_71135"/>
<feBlend mode="normal" in="SourceGraphic" in2="effect1_dropShadow_53_71135" result="shape"/>
</filter>
<filter id="filter1_d_53_71135" x="77" y="22" width="18" height="18" filterUnits="userSpaceOnUse" color-interpolation-filters="sRGB">
<feFlood flood-opacity="0" result="BackgroundImageFix"/>
<feColorMatrix in="SourceAlpha" type="matrix" values="0 0 0 0 0 0 0 0 0 0 0 0 0 0 0 0 0 0 127 0" result="hardAlpha"/>
<feOffset dy="1"/>
<feGaussianBlur stdDeviation="1"/>
<feColorMatrix type="matrix" values="0 0 0 0 0 0 0 0 0 0 0 0 0 0 0 0 0 0 0.1 0"/>
<feBlend mode="normal" in2="BackgroundImageFix" result="effect1_dropShadow_53_71135"/>
<feBlend mode="normal" in="SourceGraphic" in2="effect1_dropShadow_53_71135" result="shape"/>
</filter>
<filter id="filter2_d_53_71135" x="133" y="22" width="18" height="18" filterUnits="userSpaceOnUse" color-interpolation-filters="sRGB">
<feFlood flood-opacity="0" result="BackgroundImageFix"/>
<feColorMatrix in="SourceAlpha" type="matrix" values="0 0 0 0 0 0 0 0 0 0 0 0 0 0 0 0 0 0 127 0" result="hardAlpha"/>
<feOffset dy="1"/>
<feGaussianBlur stdDeviation="1"/>
<feColorMatrix type="matrix" values="0 0 0 0 0 0 0 0 0 0 0 0 0 0 0 0 0 0 0.1 0"/>
<feBlend mode="normal" in2="BackgroundImageFix" result="effect1_dropShadow_53_71135"/>
<feBlend mode="normal" in="SourceGraphic" in2="effect1_dropShadow_53_71135" result="shape"/>
</filter>
<filter id="filter3_d_53_71135" x="189" y="22" width="18" height="18" filterUnits="userSpaceOnUse" color-interpolation-filters="sRGB">
<feFlood flood-opacity="0" result="BackgroundImageFix"/>
<feColorMatrix in="SourceAlpha" type="matrix" values="0 0 0 0 0 0 0 0 0 0 0 0 0 0 0 0 0 0 127 0" result="hardAlpha"/>
<feOffset dy="1"/>
<feGaussianBlur stdDeviation="1"/>
<feColorMatrix type="matrix" values="0 0 0 0 0 0 0 0 0 0 0 0 0 0 0 0 0 0 0.1 0"/>
<feBlend mode="normal" in2="BackgroundImageFix" result="effect1_dropShadow_53_71135"/>
<feBlend mode="normal" in="SourceGraphic" in2="effect1_dropShadow_53_71135" result="shape"/>
</filter>
<filter id="filter4_d_53_71135" x="245" y="22" width="18" height="18" filterUnits="userSpaceOnUse" color-interpolation-filters="sRGB">
<feFlood flood-opacity="0" result="BackgroundImageFix"/>
<feColorMatrix in="SourceAlpha" type="matrix" values="0 0 0 0 0 0 0 0 0 0 0 0 0 0 0 0 0 0 127 0" result="hardAlpha"/>
<feOffset dy="1"/>
<feGaussianBlur stdDeviation="1"/>
<feColorMatrix type="matrix" values="0 0 0 0 0 0 0 0 0 0 0 0 0 0 0 0 0 0 0.1 0"/>
<feBlend mode="normal" in2="BackgroundImageFix" result="effect1_dropShadow_53_71135"/>
<feBlend mode="normal" in="SourceGraphic" in2="effect1_dropShadow_53_71135" result="shape"/>
</filter>
<filter id="filter5_d_53_71135" x="301" y="22" width="18" height="18" filterUnits="userSpaceOnUse" color-interpolation-filters="sRGB">
<feFlood flood-opacity="0" result="BackgroundImageFix"/>
<feColorMatrix in="SourceAlpha" type="matrix" values="0 0 0 0 0 0 0 0 0 0 0 0 0 0 0 0 0 0 127 0" result="hardAlpha"/>
<feOffset dy="1"/>
<feGaussianBlur stdDeviation="1"/>
<feColorMatrix type="matrix" values="0 0 0 0 0 0 0 0 0 0 0 0 0 0 0 0 0 0 0.1 0"/>
<feBlend mode="normal" in2="BackgroundImageFix" result="effect1_dropShadow_53_71135"/>
<feBlend mode="normal" in="SourceGraphic" in2="effect1_dropShadow_53_71135" result="shape"/>
</filter>
<filter id="filter6_d_53_71135" x="49" y="78" width="18" height="18" filterUnits="userSpaceOnUse" color-interpolation-filters="sRGB">
<feFlood flood-opacity="0" result="BackgroundImageFix"/>
<feColorMatrix in="SourceAlpha" type="matrix" values="0 0 0 0 0 0 0 0 0 0 0 0 0 0 0 0 0 0 127 0" result="hardAlpha"/>
<feOffset dy="1"/>
<feGaussianBlur stdDeviation="1"/>
<feColorMatrix type="matrix" values="0 0 0 0 0 0 0 0 0 0 0 0 0 0 0 0 0 0 0.1 0"/>
<feBlend mode="normal" in2="BackgroundImageFix" result="effect1_dropShadow_53_71135"/>
<feBlend mode="normal" in="SourceGraphic" in2="effect1_dropShadow_53_71135" result="shape"/>
</filter>
<filter id="filter7_d_53_71135" x="105" y="78" width="18" height="18" filterUnits="userSpaceOnUse" color-interpolation-filters="sRGB">
<feFlood flood-opacity="0" result="BackgroundImageFix"/>
<feColorMatrix in="SourceAlpha" type="matrix" values="0 0 0 0 0 0 0 0 0 0 0 0 0 0 0 0 0 0 127 0" result="hardAlpha"/>
<feOffset dy="1"/>
<feGaussianBlur stdDeviation="1"/>
<feColorMatrix type="matrix" values="0 0 0 0 0 0 0 0 0 0 0 0 0 0 0 0 0 0 0.1 0"/>
<feBlend mode="normal" in2="BackgroundImageFix" result="effect1_dropShadow_53_71135"/>
<feBlend mode="normal" in="SourceGraphic" in2="effect1_dropShadow_53_71135" result="shape"/>
</filter>
<filter id="filter8_d_53_71135" x="161" y="78" width="18" height="18" filterUnits="userSpaceOnUse" color-interpolation-filters="sRGB">
<feFlood flood-opacity="0" result="BackgroundImageFix"/>
<feColorMatrix in="SourceAlpha" type="matrix" values="0 0 0 0 0 0 0 0 0 0 0 0 0 0 0 0 0 0 127 0" result="hardAlpha"/>
<feOffset dy="1"/>
<feGaussianBlur stdDeviation="1"/>
<feColorMatrix type="matrix" values="0 0 0 0 0 0 0 0 0 0 0 0 0 0 0 0 0 0 0.1 0"/>
<feBlend mode="normal" in2="BackgroundImageFix" result="effect1_dropShadow_53_71135"/>
<feBlend mode="normal" in="SourceGraphic" in2="effect1_dropShadow_53_71135" result="shape"/>
</filter>
<filter id="filter9_d_53_71135" x="217" y="78" width="18" height="18" filterUnits="userSpaceOnUse" color-interpolation-filters="sRGB">
<feFlood flood-opacity="0" result="BackgroundImageFix"/>
<feColorMatrix in="SourceAlpha" type="matrix" values="0 0 0 0 0 0 0 0 0 0 0 0 0 0 0 0 0 0 127 0" result="hardAlpha"/>
<feOffset dy="1"/>
<feGaussianBlur stdDeviation="1"/>
<feColorMatrix type="matrix" values="0 0 0 0 0 0 0 0 0 0 0 0 0 0 0 0 0 0 0.1 0"/>
<feBlend mode="normal" in2="BackgroundImageFix" result="effect1_dropShadow_53_71135"/>
<feBlend mode="normal" in="SourceGraphic" in2="effect1_dropShadow_53_71135" result="shape"/>
</filter>
<filter id="filter10_d_53_71135" x="273" y="78" width="18" height="18" filterUnits="userSpaceOnUse" color-interpolation-filters="sRGB">
<feFlood flood-opacity="0" result="BackgroundImageFix"/>
<feColorMatrix in="SourceAlpha" type="matrix" values="0 0 0 0 0 0 0 0 0 0 0 0 0 0 0 0 0 0 127 0" result="hardAlpha"/>
<feOffset dy="1"/>
<feGaussianBlur stdDeviation="1"/>
<feColorMatrix type="matrix" values="0 0 0 0 0 0 0 0 0 0 0 0 0 0 0 0 0 0 0.1 0"/>
<feBlend mode="normal" in2="BackgroundImageFix" result="effect1_dropShadow_53_71135"/>
<feBlend mode="normal" in="SourceGraphic" in2="effect1_dropShadow_53_71135" result="shape"/>
</filter>
<linearGradient id="paint0_linear_53_71135" x1="149.013" y1="78.7674" x2="162.895" y2="64.8474" gradientUnits="userSpaceOnUse">
<stop stop-color="#00AEE9"/>
<stop offset="1" stop-color="#69FABD"/>
</linearGradient>
<clipPath id="clip0_53_71135">
<rect width="32" height="32" rx="8" fill="white"/>
</clipPath>
<clipPath id="clip1_53_71135">
<rect width="9" height="9" fill="white" transform="translate(25.5 25.5)"/>
</clipPath>
<clipPath id="clip2_53_71135">
<rect x="56" width="32" height="32" rx="8" fill="white"/>
</clipPath>
<clipPath id="clip3_53_71135">
<rect width="20" height="17" fill="white" transform="translate(62 8)"/>
</clipPath>
<clipPath id="clip4_53_71135">
<rect width="9" height="9" fill="white" transform="translate(81.5 25.5)"/>
</clipPath>
<clipPath id="clip5_53_71135">
<rect x="112" width="32" height="32" rx="8" fill="white"/>
</clipPath>
<clipPath id="clip6_53_71135">
<rect width="9" height="9" fill="white" transform="translate(137.5 25.5)"/>
</clipPath>
<clipPath id="clip7_53_71135">
<rect width="9" height="9" fill="white" transform="translate(193.5 25.5)"/>
</clipPath>
<clipPath id="clip8_53_71135">
<rect width="9" height="9" fill="white" transform="translate(249.5 25.5)"/>
</clipPath>
<clipPath id="clip9_53_71135">
<rect width="9" height="9" fill="white" transform="translate(305.5 25.5)"/>
</clipPath>
<clipPath id="clip10_53_71135">
<rect x="28" y="56" width="32" height="32" rx="8" fill="white"/>
</clipPath>
<clipPath id="clip11_53_71135">
<rect width="9" height="9" fill="white" transform="translate(53.5 81.5)"/>
</clipPath>
<clipPath id="clip12_53_71135">
<rect width="9" height="9" fill="white" transform="translate(109.5 81.5)"/>
</clipPath>
<clipPath id="clip13_53_71135">
<rect width="16" height="15.9564" fill="white" transform="translate(148 64)"/>
</clipPath>
<clipPath id="clip14_53_71135">
<rect width="9" height="9" fill="white" transform="translate(165.5 81.5)"/>
</clipPath>
<clipPath id="clip15_53_71135">
<rect width="9" height="9" fill="white" transform="translate(221.5 81.5)"/>
</clipPath>
<clipPath id="clip16_53_71135">
<rect x="252" y="56" width="32" height="32" rx="8" fill="white"/>
</clipPath>
<clipPath id="clip17_53_71135">
<rect width="9" height="9" fill="white" transform="translate(277.5 81.5)"/>
</clipPath>
</defs>
</svg>
