<svg width="256" height="22" viewBox="0 0 256 22" fill="none" xmlns="http://www.w3.org/2000/svg">
<path d="M7.08 7.42C5.74 7.42 4.38 8.06 3.76 9.12V7.66H2.02V21.54H3.76V15.54C4.38 16.64 5.7 17.24 7.1 17.24C9.66 17.24 11.76 15.3 11.76 12.34C11.76 9.4 9.64 7.42 7.08 7.42ZM6.92 15.6C5.4 15.6 3.76 14.38 3.76 12.36C3.76 10.36 5.26 9.06 6.92 9.06C8.64 9.06 10 10.5 10 12.36C10 14.24 8.64 15.6 6.92 15.6ZM18.428 17.24C21.088 17.24 23.328 15.28 23.328 12.32C23.328 9.36 21.088 7.42 18.428 7.42C15.768 7.42 13.548 9.36 13.548 12.32C13.548 15.28 15.768 17.24 18.428 17.24ZM18.428 15.6C16.728 15.6 15.308 14.26 15.308 12.32C15.308 10.4 16.728 9.06 18.428 9.06C20.148 9.06 21.588 10.4 21.588 12.32C21.588 14.26 20.148 15.6 18.428 15.6ZM37.4742 7.66L35.0942 14.3L32.6942 7.66H30.9942L28.6142 14.3L26.2342 7.66H24.3542L27.9142 17H29.3542L31.8342 10.06L34.4142 17H35.8742L39.3542 7.66H37.4742ZM49.8439 12.3C49.8439 9.34 47.8639 7.42 45.2039 7.42C42.5439 7.42 40.4039 9.34 40.4039 12.3C40.4039 15.26 42.5439 17.24 45.2039 17.24C47.0039 17.24 48.6839 16.36 49.4839 14.74L47.9839 14.14C47.4439 15.08 46.4039 15.6 45.2639 15.6C43.6639 15.6 42.4639 14.74 42.2039 13.08H49.8039C49.8239 12.82 49.8439 12.56 49.8439 12.3ZM42.2239 11.58C42.5039 9.9 43.6239 9.06 45.2039 9.06C46.7439 9.06 47.8839 9.98 48.1039 11.58H42.2239ZM56.5953 7.42C55.3553 7.42 54.4553 8.14 53.9753 9.78V7.66H52.2153V17H53.9753V13.58C53.9753 11.12 54.7153 9.1 56.5753 9.1C56.9353 9.1 57.4353 9.18 57.9353 9.42L58.2153 7.78C57.9353 7.6 57.2553 7.42 56.5953 7.42ZM68.4572 12.3C68.4572 9.34 66.4772 7.42 63.8172 7.42C61.1572 7.42 59.0172 9.34 59.0172 12.3C59.0172 15.26 61.1572 17.24 63.8172 17.24C65.6172 17.24 67.2972 16.36 68.0972 14.74L66.5972 14.14C66.0572 15.08 65.0172 15.6 63.8772 15.6C62.2772 15.6 61.0772 14.74 60.8172 13.08H68.4172C68.4372 12.82 68.4572 12.56 68.4572 12.3ZM60.8372 11.58C61.1172 9.9 62.2372 9.06 63.8172 9.06C65.3572 9.06 66.4972 9.98 66.7172 11.58H60.8372ZM78.2086 2.58V9.12C77.5886 8.02 76.2686 7.42 74.8686 7.42C72.3086 7.42 70.2086 9.36 70.2086 12.32C70.2086 15.26 72.3286 17.24 74.8886 17.24C76.2286 17.24 77.5886 16.6 78.2086 15.54V17H79.9486V2.58H78.2086ZM75.0286 15.6C73.3286 15.6 71.9686 14.16 71.9686 12.3C71.9686 10.42 73.3286 9.06 75.0286 9.06C76.5686 9.06 78.2086 10.28 78.2086 12.3C78.2086 14.3 76.7086 15.6 75.0286 15.6ZM93.1352 7.42C91.7352 7.42 90.4152 8.02 89.7952 9.12V2.58H88.0552V17H89.7952V15.54C90.4152 16.6 91.7752 17.24 93.1152 17.24C95.6752 17.24 97.7952 15.26 97.7952 12.32C97.7952 9.36 95.6952 7.42 93.1352 7.42ZM92.9552 15.6C91.2952 15.6 89.7952 14.3 89.7952 12.3C89.7952 10.28 91.4352 9.06 92.9552 9.06C94.6752 9.06 96.0352 10.42 96.0352 12.3C96.0352 14.16 94.6752 15.6 92.9552 15.6ZM106.369 7.66L103.509 14.54L100.689 7.66H98.8088L102.569 16.72L100.609 21.54H102.449L108.249 7.66H106.369Z" fill="#999CA5"/>
<g clip-path="url(#clip0_598_13369)">
<path d="M241.522 15.1478L238.791 10.4146H244.256L246.989 15.1478H241.522Z" fill="white"/>
<path d="M244.256 10.4149H238.791L241.522 5.68164H246.989L244.256 10.4149Z" fill="url(#paint0_linear_598_13369)"/>
<path d="M249.721 10.4147L246.989 5.68145H241.522L238.791 0.948242H249.721L255.188 10.4147H249.721Z" fill="white"/>
<path d="M249.721 19.881H238.791L241.522 15.1478H246.989L249.721 10.4146H255.188L249.721 19.881Z" fill="url(#paint1_linear_598_13369)"/>
<path d="M129.815 11.4872C129.815 14.8878 127.305 17.5129 124.247 17.5129C122.581 17.5129 121.37 16.8964 120.549 15.8467V17.1933H117.605V1.19993L120.549 0.293457V7.12954C121.37 6.0816 122.581 5.46331 124.247 5.46331C127.305 5.46331 129.815 8.08666 129.815 11.4872ZM126.87 11.4872C126.87 9.56601 125.525 8.27005 123.699 8.27005C121.872 8.27005 120.555 9.57125 120.555 11.4872C120.555 13.4032 121.901 14.7062 123.699 14.7062C125.496 14.7062 126.87 13.405 126.87 11.4872Z" fill="white"/>
<path d="M131.139 1.19993L134.082 0.293457V17.1933H131.139V1.19993Z" fill="white"/>
<path d="M135.383 11.4871C135.381 10.2923 135.734 9.12371 136.396 8.12943C137.059 7.13515 138.001 6.35985 139.105 5.90174C140.208 5.44364 141.423 5.32332 142.595 5.55603C143.767 5.78875 144.843 6.36402 145.688 7.209C146.533 8.05398 147.108 9.13064 147.34 10.3026C147.572 11.4746 147.452 12.6892 146.993 13.7926C146.535 14.8959 145.759 15.8384 144.765 16.5007C143.77 17.1629 142.602 17.5151 141.407 17.5127C140.613 17.5211 139.826 17.371 139.091 17.0712C138.357 16.7713 137.689 16.3277 137.128 15.7665C136.567 15.2053 136.124 14.5376 135.824 13.8028C135.524 13.0679 135.374 12.2806 135.383 11.4871ZM144.511 11.4871C144.511 9.63918 143.164 8.34322 141.407 8.34322C139.65 8.34322 138.326 9.64442 138.326 11.4871C138.326 13.3297 139.673 14.6309 141.407 14.6309C143.141 14.6309 144.511 13.3367 144.511 11.4871Z" fill="white"/>
<path d="M148.572 11.4873C148.572 8.08673 151.127 5.46338 154.595 5.46338C156.833 5.46338 158.772 6.6493 159.708 8.40635L157.175 9.89094C156.718 8.95478 155.736 8.36094 154.573 8.36094C152.816 8.36094 151.515 9.66214 151.515 11.4873C151.515 13.3125 152.816 14.591 154.573 14.591C155.76 14.591 156.74 14.0216 157.193 13.0854L159.748 14.5456C159.233 15.4569 158.482 16.2133 157.575 16.7356C156.668 17.2579 155.637 17.527 154.59 17.5147C151.127 17.513 148.572 14.8879 148.572 11.4873Z" fill="white"/>
<path d="M168.206 17.1933L164.053 12.013V17.1933H161.108V1.19993L164.053 0.293457V10.8026L167.976 5.78293H171.49L166.905 11.4191L171.63 17.1933H168.206Z" fill="white"/>
<path d="M183.391 10.1861V17.1934H180.446V10.5564C180.446 9.00368 179.512 8.2055 178.188 8.2055C176.751 8.2055 175.676 9.04909 175.676 11.0349V17.1934H172.734V5.783H175.676V7.05975C176.361 6.03276 177.549 5.46338 179.077 5.46338C181.496 5.46338 183.391 7.16105 183.391 10.1861Z" fill="white"/>
<path d="M196.92 5.783V17.1934H193.977V15.8468C193.154 16.8737 191.923 17.513 190.257 17.513C187.221 17.513 184.712 14.8931 184.712 11.4873C184.712 8.08149 187.221 5.46338 190.257 5.46338C191.923 5.46338 193.154 6.10262 193.977 7.12961V5.783H196.92ZM193.977 11.4873C193.977 9.56608 192.631 8.27012 190.804 8.27012C188.977 8.27012 187.66 9.57132 187.66 11.4873C187.66 13.4033 189.006 14.7062 190.804 14.7062C192.601 14.7062 193.977 13.405 193.977 11.4873Z" fill="white"/>
<path d="M204.593 8.61235V5.7829H202.013V2.42773L199.065 3.33421V13.3595C199.065 16.4405 200.462 17.6491 204.589 17.202V14.5227C202.9 14.6153 202.01 14.5909 202.01 13.3595V8.61235H204.593Z" fill="white"/>
<path d="M206.656 5.78271H209.598V17.1931H206.656V5.78271Z" fill="white"/>
<path d="M222.841 5.78271L218.504 17.1931H215.149L210.814 5.78271H214.054L216.815 13.7698L219.599 5.78271H222.841Z" fill="white"/>
<path d="M229.141 14.8458C230.281 14.8458 231.195 14.3673 231.698 13.7053L234.07 15.0746C232.997 16.6256 231.286 17.5198 229.096 17.5198C225.253 17.5198 222.843 14.9 222.843 11.4941C222.843 8.08833 225.288 5.47021 228.867 5.47021C232.245 5.47021 234.641 8.14072 234.641 11.4941C234.636 11.898 234.596 12.3008 234.52 12.6975H225.924C226.334 14.2031 227.59 14.8458 229.141 14.8458ZM231.698 10.4183C231.331 8.77473 230.1 8.11278 228.867 8.11278C227.295 8.11278 226.221 8.95812 225.877 10.4183H231.698Z" fill="white"/>
</g>
<defs>
<linearGradient id="paint0_linear_598_13369" x1="238.791" y1="8.04825" x2="246.989" y2="8.04825" gradientUnits="userSpaceOnUse">
<stop stop-color="#55CCFE"/>
<stop offset="1" stop-color="#5E93EF"/>
</linearGradient>
<linearGradient id="paint1_linear_598_13369" x1="11625.6" y1="831.437" x2="13164.9" y2="831.437" gradientUnits="userSpaceOnUse">
<stop stop-color="#55CCFE"/>
<stop offset="1" stop-color="#5E93EF"/>
</linearGradient>
<clipPath id="clip0_598_13369">
<rect width="138.039" height="20" fill="white" transform="translate(117.5)"/>
</clipPath>
</defs>
</svg>
