<svg width="833" height="77" viewBox="0 0 833 77" fill="none" xmlns="http://www.w3.org/2000/svg">
<g clip-path="url(#clip0_208_15)">
<path fill-rule="evenodd" clip-rule="evenodd" d="M599.089 7.22949C595.384 7.22949 592.346 10.2302 592.346 14.0561C592.346 17.807 595.384 20.8077 599.089 20.8077C602.794 20.8077 605.833 17.807 605.833 14.0561C605.833 10.2302 602.794 7.22949 599.089 7.22949ZM605.017 24.2583H593.235V64.6928H605.017V24.2583ZM524.47 8.72997H535.955V24.2586H544.773V35.0612H535.955V49.3145C535.955 51.415 537.586 53.0654 539.586 53.0654H544.699V64.5431H539.586C531.287 64.5431 524.47 57.7165 524.47 49.2395V34.9861H519.135V24.1836H524.47V8.72997ZM572.857 23.3584C567.522 23.3584 563.299 25.6089 561.668 29.1348V8.72997H549.886V64.6181H561.668V41.9628C561.668 37.2367 564.706 33.9359 569.004 33.9359C573.376 33.9359 575.822 36.7866 575.822 41.5877V64.6931H587.604V40.0873C587.604 29.5849 582.268 23.3584 572.857 23.3584ZM621.838 24.1834V29.7347C623.616 25.6837 627.914 23.3582 633.323 23.2832C634.138 23.2832 635.176 23.3582 636.435 23.5082V34.7609C635.25 34.5358 633.916 34.3858 632.508 34.3858C625.765 34.3858 621.838 38.2117 621.838 44.8882V64.6179H610.056V24.1834H621.838ZM669.558 29.5099C668.373 25.984 663.704 23.5085 657.702 23.5085C652.07 23.5085 647.328 25.5339 643.549 29.5849C639.844 33.5608 637.917 38.587 637.917 44.4384C637.917 50.2898 639.844 55.2409 643.549 59.3669C647.328 63.3428 652.07 65.3683 657.702 65.3683C663.704 65.3683 668.373 62.8927 669.558 59.3669V64.6931H681.34V8.72997H669.558V29.5099ZM667.187 51.6401C665.186 53.5905 662.741 54.4907 659.851 54.4907C657.035 54.4907 654.59 53.5155 652.663 51.6401C650.663 49.6146 649.699 47.214 649.699 44.4384C649.699 41.6627 650.663 39.2622 652.663 37.3117C654.664 35.2862 657.035 34.311 659.851 34.311C662.815 34.311 665.26 35.2862 667.187 37.3117C669.262 39.2622 670.299 41.6627 670.299 44.4384C670.299 47.214 669.262 49.6146 667.187 51.6401ZM715.354 24.4083L726.024 43.6128L733.212 24.2583H744.772L728.321 67.0183L715.354 43.7629L702.386 67.0183L686.01 24.2583H697.57L704.683 43.6128L715.354 24.4083ZM764.185 23.2832C758.109 23.2832 752.996 25.2336 748.994 29.1345C745.067 32.9604 743.066 38.0616 743.066 44.3631V44.7382C743.066 51.0397 745.067 56.1409 748.994 59.9668C753.07 63.7177 758.257 65.6681 764.778 65.6681C770.854 65.6681 775.819 64.4678 779.598 61.9922V51.5648C775.893 54.1904 771.15 55.4657 765.445 55.4657C759.22 55.4657 755.145 52.39 754.922 47.5889H784.192C784.34 46.3886 784.414 45.0383 784.414 43.688C784.414 37.9116 782.488 33.1105 778.783 29.2096C775.078 25.2336 770.113 23.2832 764.185 23.2832ZM754.922 39.8621C754.997 37.9866 755.96 36.4112 757.738 35.1359C759.591 33.8606 761.666 33.1855 764.185 33.1855C768.853 33.1855 772.484 36.2612 772.484 39.8621H754.922ZM812.499 23.5084C818.13 23.5084 822.873 25.5339 826.578 29.5849C830.357 33.6358 832.284 38.512 832.284 44.3633C832.284 50.2147 830.357 55.1659 826.578 59.2919C822.873 63.2678 818.13 65.2933 812.499 65.2933C806.497 65.2933 801.828 62.8177 800.643 59.2919V64.6181H788.861V8.72997H800.643V29.5099C801.828 25.984 806.497 23.5084 812.499 23.5084ZM810.35 54.4907C813.166 54.4907 815.537 53.5905 817.538 51.6401C819.538 49.6146 820.502 47.214 820.502 44.4384C820.502 41.6627 819.538 39.2621 817.538 37.3117C815.611 35.2862 813.166 34.311 810.35 34.311C807.46 34.311 805.014 35.2862 802.94 37.3117C800.939 39.2621 799.902 41.6627 799.902 44.4384C799.902 47.214 800.939 49.6146 802.94 51.6401C804.94 53.5155 807.386 54.4907 810.35 54.4907Z" fill="currentColor"/>
<path d="M440.196 0.229492C440.94 0.384102 441.642 0.696691 442.255 1.14619C442.942 1.68964 443.467 2.41004 443.776 3.23014C445.725 8.10742 447.675 12.9817 449.624 17.8531C451.781 23.2708 453.949 28.6895 456.128 34.1091C457.264 36.9506 458.393 39.795 459.546 42.6306C459.792 43.2106 459.918 43.8341 459.918 44.464C459.918 45.0939 459.792 45.7174 459.546 46.2974L449.639 71.0129C448.983 72.6488 447.794 73.6658 446.047 73.931C443.873 74.2582 441.929 73.1853 441.143 71.2782C439.284 66.7065 437.466 62.12 435.633 57.5365L426.314 34.2211C423.555 27.3021 420.792 20.3851 418.024 13.4701C417.107 11.1739 416.218 8.86593 415.259 6.58744C414.995 5.96791 414.87 5.29778 414.893 4.62451C414.917 3.95123 415.087 3.29128 415.393 2.6914C415.699 2.09151 416.133 1.56636 416.664 1.15315C417.195 0.739933 417.81 0.448754 418.466 0.300235C418.545 0.282549 418.622 0.253073 418.698 0.229492H440.196Z" fill="url(#paint0_linear_208_15)"/>
<path d="M401.584 0.229492C401.828 0.297287 402.072 0.356239 402.311 0.438771C402.931 0.632632 403.5 0.963361 403.976 1.40663C404.452 1.84991 404.823 2.39446 405.061 3.00023C407.189 8.28231 409.307 13.5683 411.415 18.8583C413.549 24.1914 415.683 29.5256 417.816 34.8607C418.86 37.4762 419.908 40.0907 420.961 42.7043C421.197 43.264 421.318 43.8653 421.318 44.4728C421.318 45.0803 421.197 45.6817 420.961 46.2414C419.784 49.1772 418.608 52.112 417.431 55.0458C415.274 60.4163 413.116 65.7869 410.959 71.1574C410.621 71.9936 410.042 72.7101 409.296 73.216C408.55 73.7219 407.671 73.9944 406.77 73.9988C405.816 74.0157 404.88 73.7368 404.09 73.2002C403.3 72.6636 402.695 71.8955 402.358 71.0011C400.363 65.9401 398.328 60.8938 396.31 55.8417C393.605 49.0013 390.887 42.1658 388.155 35.3353C385.374 28.3829 382.594 21.4295 379.816 14.4752C378.762 11.843 377.718 9.20491 376.65 6.57565C376.184 5.48013 376.161 4.24566 376.587 3.13371C377.013 2.02177 377.855 1.11969 378.933 0.618574C379.324 0.460149 379.726 0.33012 380.136 0.229492H401.584Z" fill="url(#paint1_linear_208_15)"/>
<path d="M497.779 45.1821C497.191 47.1718 496.309 49.0494 495.558 50.9682C493.388 56.4272 491.205 61.8832 489.01 67.3362C488.507 68.586 487.995 69.8328 487.507 71.0885C487.163 71.9465 486.57 72.6815 485.805 73.1982C485.04 73.7149 484.138 73.9896 483.215 73.9867C482.292 73.9838 481.392 73.7036 480.63 73.1821C479.868 72.6607 479.279 71.9221 478.941 71.062L469.415 47.2395L461.179 26.6624C458.49 19.9439 455.803 13.2263 453.118 6.50974C452.863 5.8956 452.745 5.23283 452.774 4.56815C452.802 3.90348 452.975 3.25309 453.281 2.66285C453.588 2.07261 454.02 1.55689 454.546 1.15205C455.073 0.747213 455.682 0.46312 456.331 0.319802C456.419 0.299169 456.504 0.269693 456.593 0.243164H478.091C478.158 0.263797 478.223 0.290326 478.291 0.305064C479.045 0.462725 479.747 0.808494 480.332 1.31034C480.917 1.81219 481.367 2.45389 481.638 3.17602C482.89 6.32011 484.143 9.45537 485.398 12.5818C488.683 20.7918 491.965 29.0018 495.244 37.2118C496.106 39.3754 497.065 41.5006 497.771 43.7231L497.779 45.1821Z" fill="url(#paint2_linear_208_15)"/>
</g>
<path d="M3.86364 75.0909V27.0909H13.4091V32.9545H13.8409C14.2652 32.0152 14.8788 31.0606 15.6818 30.0909C16.5 29.1061 17.5606 28.2879 18.8636 27.6364C20.1818 26.9697 21.8182 26.6364 23.7727 26.6364C26.3182 26.6364 28.6667 27.303 30.8182 28.6364C32.9697 29.9545 34.6894 31.947 35.9773 34.6136C37.2652 37.2652 37.9091 40.5909 37.9091 44.5909C37.9091 48.4848 37.2803 51.7727 36.0227 54.4545C34.7803 57.1212 33.0833 59.1439 30.9318 60.5227C28.7955 61.8864 26.4015 62.5682 23.75 62.5682C21.8712 62.5682 20.2727 62.2576 18.9545 61.6364C17.6515 61.0152 16.5833 60.2348 15.75 59.2955C14.9167 58.3409 14.2803 57.3788 13.8409 56.4091H13.5455V75.0909H3.86364ZM13.3409 44.5455C13.3409 46.6212 13.6288 48.4318 14.2045 49.9773C14.7803 51.5227 15.6136 52.7273 16.7045 53.5909C17.7955 54.4394 19.1212 54.8636 20.6818 54.8636C22.2576 54.8636 23.5909 54.4318 24.6818 53.5682C25.7727 52.6894 26.5985 51.4773 27.1591 49.9318C27.7348 48.3712 28.0227 46.5758 28.0227 44.5455C28.0227 42.5303 27.7424 40.7576 27.1818 39.2273C26.6212 37.697 25.7955 36.5 24.7045 35.6364C23.6136 34.7727 22.2727 34.3409 20.6818 34.3409C19.1061 34.3409 17.7727 34.7576 16.6818 35.5909C15.6061 36.4242 14.7803 37.6061 14.2045 39.1364C13.6288 40.6667 13.3409 42.4697 13.3409 44.5455ZM58.2164 62.6818C54.6861 62.6818 51.633 61.9318 49.0573 60.4318C46.4967 58.9167 44.5194 56.8106 43.1255 54.1136C41.7315 51.4015 41.0345 48.2576 41.0345 44.6818C41.0345 41.0758 41.7315 37.9242 43.1255 35.2273C44.5194 32.5152 46.4967 30.4091 49.0573 28.9091C51.633 27.3939 54.6861 26.6364 58.2164 26.6364C61.7467 26.6364 64.7921 27.3939 67.3527 28.9091C69.9285 30.4091 71.9133 32.5152 73.3073 35.2273C74.7012 37.9242 75.3982 41.0758 75.3982 44.6818C75.3982 48.2576 74.7012 51.4015 73.3073 54.1136C71.9133 56.8106 69.9285 58.9167 67.3527 60.4318C64.7921 61.9318 61.7467 62.6818 58.2164 62.6818ZM58.2618 55.1818C59.8679 55.1818 61.2088 54.7273 62.2845 53.8182C63.3603 52.8939 64.1709 51.6364 64.7164 50.0455C65.277 48.4545 65.5573 46.6439 65.5573 44.6136C65.5573 42.5833 65.277 40.7727 64.7164 39.1818C64.1709 37.5909 63.3603 36.3333 62.2845 35.4091C61.2088 34.4848 59.8679 34.0227 58.2618 34.0227C56.6406 34.0227 55.277 34.4848 54.1709 35.4091C53.08 36.3333 52.2542 37.5909 51.6936 39.1818C51.1482 40.7727 50.8755 42.5833 50.8755 44.6136C50.8755 46.6439 51.1482 48.4545 51.6936 50.0455C52.2542 51.6364 53.08 52.8939 54.1709 53.8182C55.277 54.7273 56.6406 55.1818 58.2618 55.1818ZM85.785 62L76.285 27.0909H86.0805L91.4895 50.5455H91.8077L97.4441 27.0909H107.058L112.785 50.4091H113.08L118.399 27.0909H128.171L118.694 62H108.444L102.444 40.0455H102.012L96.0123 62H85.785ZM146.45 62.6818C142.859 62.6818 139.768 61.9545 137.177 60.5C134.602 59.0303 132.617 56.9545 131.223 54.2727C129.829 51.5758 129.132 48.3864 129.132 44.7045C129.132 41.1136 129.829 37.9621 131.223 35.25C132.617 32.5379 134.579 30.4242 137.109 28.9091C139.655 27.3939 142.64 26.6364 146.064 26.6364C148.367 26.6364 150.511 27.0076 152.496 27.75C154.496 28.4773 156.238 29.5758 157.723 31.0455C159.223 32.5152 160.39 34.3636 161.223 36.5909C162.056 38.803 162.473 41.3939 162.473 44.3636V47.0227H132.996V41.0227H153.359C153.359 39.6288 153.056 38.3939 152.45 37.3182C151.844 36.2424 151.003 35.4015 149.927 34.7955C148.867 34.1742 147.632 33.8636 146.223 33.8636C144.753 33.8636 143.45 34.2045 142.314 34.8864C141.193 35.553 140.314 36.4545 139.677 37.5909C139.041 38.7121 138.715 39.9621 138.7 41.3409V47.0455C138.7 48.7727 139.018 50.2652 139.655 51.5227C140.306 52.7803 141.223 53.75 142.405 54.4318C143.587 55.1136 144.988 55.4545 146.609 55.4545C147.685 55.4545 148.67 55.303 149.564 55C150.458 54.697 151.223 54.2424 151.859 53.6364C152.496 53.0303 152.981 52.2879 153.314 51.4091L162.268 52C161.814 54.1515 160.882 56.0303 159.473 57.6364C158.079 59.2273 156.276 60.4697 154.064 61.3636C151.867 62.2424 149.329 62.6818 146.45 62.6818ZM166.871 62V27.0909H176.258V33.1818H176.621C177.258 31.0152 178.326 29.3788 179.826 28.2727C181.326 27.1515 183.053 26.5909 185.008 26.5909C185.492 26.5909 186.015 26.6212 186.576 26.6818C187.136 26.7424 187.629 26.8258 188.053 26.9318V35.5227C187.598 35.3864 186.97 35.2652 186.167 35.1591C185.364 35.053 184.629 35 183.962 35C182.538 35 181.265 35.3106 180.144 35.9318C179.038 36.5379 178.159 37.3864 177.508 38.4773C176.871 39.5682 176.553 40.8258 176.553 42.25V62H166.871ZM205.423 62.6818C201.832 62.6818 198.741 61.9545 196.15 60.5C193.574 59.0303 191.589 56.9545 190.195 54.2727C188.802 51.5758 188.105 48.3864 188.105 44.7045C188.105 41.1136 188.802 37.9621 190.195 35.25C191.589 32.5379 193.552 30.4242 196.082 28.9091C198.627 27.3939 201.612 26.6364 205.036 26.6364C207.339 26.6364 209.483 27.0076 211.468 27.75C213.468 28.4773 215.211 29.5758 216.695 31.0455C218.195 32.5152 219.362 34.3636 220.195 36.5909C221.029 38.803 221.445 41.3939 221.445 44.3636V47.0227H191.968V41.0227H212.332C212.332 39.6288 212.029 38.3939 211.423 37.3182C210.817 36.2424 209.976 35.4015 208.9 34.7955C207.839 34.1742 206.605 33.8636 205.195 33.8636C203.726 33.8636 202.423 34.2045 201.286 34.8864C200.165 35.553 199.286 36.4545 198.65 37.5909C198.014 38.7121 197.688 39.9621 197.673 41.3409V47.0455C197.673 48.7727 197.991 50.2652 198.627 51.5227C199.279 52.7803 200.195 53.75 201.377 54.4318C202.559 55.1136 203.961 55.4545 205.582 55.4545C206.658 55.4545 207.642 55.303 208.536 55C209.43 54.697 210.195 54.2424 210.832 53.6364C211.468 53.0303 211.953 52.2879 212.286 51.4091L221.241 52C220.786 54.1515 219.855 56.0303 218.445 57.6364C217.052 59.2273 215.248 60.4697 213.036 61.3636C210.839 62.2424 208.302 62.6818 205.423 62.6818ZM238.707 62.5682C236.056 62.5682 233.654 61.8864 231.503 60.5227C229.366 59.1439 227.669 57.1212 226.412 54.4545C225.169 51.7727 224.548 48.4848 224.548 44.5909C224.548 40.5909 225.192 37.2652 226.48 34.6136C227.768 31.947 229.48 29.9545 231.616 28.6364C233.768 27.303 236.124 26.6364 238.685 26.6364C240.639 26.6364 242.268 26.9697 243.571 27.6364C244.889 28.2879 245.95 29.1061 246.753 30.0909C247.571 31.0606 248.192 32.0152 248.616 32.9545H248.912V15.4545H258.571V62H249.025V56.4091H248.616C248.162 57.3788 247.518 58.3409 246.685 59.2955C245.866 60.2348 244.798 61.0152 243.48 61.6364C242.177 62.2576 240.586 62.5682 238.707 62.5682ZM241.775 54.8636C243.336 54.8636 244.654 54.4394 245.73 53.5909C246.821 52.7273 247.654 51.5227 248.23 49.9773C248.821 48.4318 249.116 46.6212 249.116 44.5455C249.116 42.4697 248.828 40.6667 248.253 39.1364C247.677 37.6061 246.844 36.4242 245.753 35.5909C244.662 34.7576 243.336 34.3409 241.775 34.3409C240.185 34.3409 238.844 34.7727 237.753 35.6364C236.662 36.5 235.836 37.697 235.275 39.2273C234.715 40.7576 234.435 42.5303 234.435 44.5455C234.435 46.5758 234.715 48.3712 235.275 49.9318C235.851 51.4773 236.677 52.6894 237.753 53.5682C238.844 54.4318 240.185 54.8636 241.775 54.8636ZM277.685 62V15.4545H287.367V32.9545H287.663C288.087 32.0152 288.701 31.0606 289.504 30.0909C290.322 29.1061 291.382 28.2879 292.685 27.6364C294.004 26.9697 295.64 26.6364 297.595 26.6364C300.14 26.6364 302.488 27.303 304.64 28.6364C306.792 29.9545 308.511 31.947 309.799 34.6136C311.087 37.2652 311.731 40.5909 311.731 44.5909C311.731 48.4848 311.102 51.7727 309.845 54.4545C308.602 57.1212 306.905 59.1439 304.754 60.5227C302.617 61.8864 300.223 62.5682 297.572 62.5682C295.693 62.5682 294.095 62.2576 292.776 61.6364C291.473 61.0152 290.405 60.2348 289.572 59.2955C288.739 58.3409 288.102 57.3788 287.663 56.4091H287.231V62H277.685ZM287.163 44.5455C287.163 46.6212 287.451 48.4318 288.026 49.9773C288.602 51.5227 289.435 52.7273 290.526 53.5909C291.617 54.4394 292.943 54.8636 294.504 54.8636C296.079 54.8636 297.413 54.4318 298.504 53.5682C299.595 52.6894 300.42 51.4773 300.981 49.9318C301.557 48.3712 301.845 46.5758 301.845 44.5455C301.845 42.5303 301.564 40.7576 301.004 39.2273C300.443 37.697 299.617 36.5 298.526 35.6364C297.435 34.7727 296.095 34.3409 294.504 34.3409C292.928 34.3409 291.595 34.7576 290.504 35.5909C289.428 36.4242 288.602 37.6061 288.026 39.1364C287.451 40.6667 287.163 42.4697 287.163 44.5455ZM321.123 75.0909C319.896 75.0909 318.745 74.9924 317.669 74.7955C316.608 74.6136 315.729 74.3788 315.033 74.0909L317.214 66.8636C318.351 67.2121 319.373 67.4015 320.283 67.4318C321.207 67.4621 322.002 67.25 322.669 66.7955C323.351 66.3409 323.904 65.5682 324.328 64.4773L324.896 63L312.373 27.0909H322.555L329.783 52.7273H330.146L337.442 27.0909H347.692L334.123 65.7727C333.472 67.6515 332.586 69.2879 331.464 70.6818C330.358 72.0909 328.957 73.1742 327.26 73.9318C325.563 74.7045 323.517 75.0909 321.123 75.0909Z" fill="currentColor"/>
<defs>
<linearGradient id="paint0_linear_208_15" x1="411.559" y1="6.219" x2="463.345" y2="57.9015" gradientUnits="userSpaceOnUse">
<stop stop-color="#FF00A8"/>
<stop offset="1" stop-color="#6200C6"/>
</linearGradient>
<linearGradient id="paint1_linear_208_15" x1="372.967" y1="6.20131" x2="424.742" y2="57.872" gradientUnits="userSpaceOnUse">
<stop stop-color="#FF00A8"/>
<stop offset="1" stop-color="#6200C6"/>
</linearGradient>
<linearGradient id="paint2_linear_208_15" x1="449.444" y1="6.20024" x2="501.222" y2="57.8739" gradientUnits="userSpaceOnUse">
<stop stop-color="#FF00A8"/>
<stop offset="1" stop-color="#6200C6"/>
</linearGradient>
<clipPath id="clip0_208_15">
<rect width="457" height="74" fill="white" transform="translate(376)"/>
</clipPath>
</defs>
</svg>
